M48
;GenerationSoftware,Autodesk,EAGLE,9.6.2*%
;CreationDate,2021-11-02T11:45:40Z*%
FMAT,2
ICI,OFF
METRIC,TZ,000.000
T1C0.300
%
G90
M71
T1
X8128Y2159
X2604Y1587
X3265Y38545
X7403Y38545
X2540Y36830
X1255Y4255
X1191Y2731
X3795Y6350
X7605Y6350
X8382Y35751
X10097Y40069
X635Y39116
X9446Y2223
X5524Y3746
X5334Y34290
X5969Y32194
X6794Y29210
X6794Y28257
X3429Y23876
X4000Y20511
X4000Y19558
X3365Y13970
X4000Y11874
X9446Y4318
X7239Y21844
X7366Y13208
X6731Y16065
X3175Y28575
X7620Y24130
X2906Y10160
X8684Y13208
X8303Y18415
X7584Y1587
X7112Y2096
X6604Y1587
X6096Y2096
X5604Y1587
X5144Y2540
X4604Y1587
X4064Y2159
X3604Y1587
X1334Y34318
X1302Y25382
X1270Y12509
X3048Y2159
X1334Y35306
X1016Y24701
X1001Y13271
X3126Y13271
X7366Y14795
X8578Y1582
X1841Y2159
X3519Y37846
X7085Y37846
X5334Y7366
X1207Y1651
X730Y2127
X9525Y1397
X6731Y10922
X6731Y9970
X19304Y2159
X13779Y1587
X14441Y38545
X18579Y38545
X13716Y36830
X12431Y4255
X12367Y2731
X14971Y6350
X18781Y6350
X19558Y35751
X21273Y40069
X11811Y39116
X20622Y2223
X16701Y3746
X16510Y34290
X17145Y32194
X17971Y29210
X17971Y28257
X14605Y23876
X15176Y20511
X15176Y19558
X14541Y13970
X15176Y11874
X20622Y4318
X18415Y21844
X18542Y13208
X17907Y16065
X14351Y28575
X18796Y24130
X14082Y10160
X19860Y13208
X19479Y18415
X18760Y1587
X18288Y2096
X17780Y1587
X17272Y2096
X16780Y1587
X16319Y2540
X15780Y1587
X15240Y2159
X14780Y1587
X12509Y34318
X12478Y25382
X12446Y12509
X14224Y2159
X12509Y35306
X12192Y24701
X12177Y13271
X14302Y13271
X18542Y14795
X19754Y1582
X13017Y2159
X14695Y37846
X18262Y37846
X16510Y7366
X12382Y1651
X11906Y2127
X20701Y1397
X17907Y10922
X17907Y9970
X30480Y2159
X24955Y1587
X25617Y38545
X29755Y38545
X24892Y36830
X23607Y4255
X23543Y2731
X26147Y6350
X29957Y6350
X30734Y35751
X32448Y40069
X22987Y39116
X31798Y2223
X27876Y3746
X27686Y34290
X28321Y32194
X29146Y29210
X29146Y28257
X25781Y23876
X26352Y20511
X26352Y19558
X25717Y13970
X26352Y11874
X31798Y4318
X29591Y21844
X29718Y13208
X29083Y16065
X25527Y28575
X29972Y24130
X25258Y10160
X31036Y13208
X30655Y18415
X29936Y1587
X29464Y2096
X28956Y1587
X28448Y2096
X27956Y1587
X27495Y2540
X26956Y1587
X26416Y2159
X25956Y1587
X23685Y34318
X23654Y25382
X23622Y12509
X25400Y2159
X23685Y35306
X23368Y24701
X23353Y13271
X25478Y13271
X29718Y14795
X30930Y1582
X24193Y2159
X25871Y37846
X29437Y37846
X27686Y7366
X23558Y1651
X23082Y2127
X31877Y1397
X29083Y10922
X29083Y9970
X41656Y2159
X36132Y1587
X36793Y38545
X40931Y38545
X36068Y36830
X34783Y4255
X34719Y2731
X37323Y6350
X41133Y6350
X41910Y35751
X43625Y40069
X34163Y39116
X42974Y2223
X39053Y3746
X38862Y34290
X39497Y32194
X40323Y29210
X40323Y28257
X36957Y23876
X37529Y20511
X37529Y19558
X36894Y13970
X37529Y11874
X42974Y4318
X40767Y21844
X40894Y13208
X40259Y16065
X36703Y28575
X41148Y24130
X36434Y10160
X42212Y13208
X41831Y18415
X41112Y1587
X40640Y2096
X40132Y1587
X39624Y2096
X39132Y1587
X38672Y2540
X38132Y1587
X37592Y2159
X37132Y1587
X34862Y34318
X34830Y25382
X34798Y12509
X36576Y2159
X34862Y35306
X34544Y24701
X34529Y13271
X36654Y13271
X40894Y14795
X42106Y1582
X35370Y2159
X37047Y37846
X40614Y37846
X38862Y7366
X34735Y1651
X34258Y2127
X43053Y1397
X40259Y10922
X40259Y9970
X52832Y2159
X47307Y1587
X47969Y38545
X52107Y38545
X47244Y36830
X45959Y4255
X45895Y2731
X48499Y6350
X52309Y6350
X53086Y35751
X54800Y40069
X45339Y39116
X54150Y2223
X50228Y3746
X50038Y34290
X50673Y32194
X51498Y29210
X51498Y28257
X48133Y23876
X48704Y20511
X48704Y19558
X48069Y13970
X48704Y11874
X54150Y4318
X51943Y21844
X52070Y13208
X51435Y16065
X47879Y28575
X52324Y24130
X47610Y10160
X53388Y13208
X53007Y18415
X52288Y1587
X51816Y2096
X51308Y1587
X50800Y2096
X50308Y1587
X49847Y2540
X49308Y1587
X48768Y2159
X48308Y1587
X46037Y34318
X46006Y25382
X45974Y12509
X47752Y2159
X46037Y35306
X45720Y24701
X45705Y13271
X47830Y13271
X52070Y14795
X53282Y1582
X46545Y2159
X48223Y37846
X51789Y37846
X50038Y7366
X45910Y1651
X45434Y2127
X54229Y1397
X51435Y10922
X51435Y9970
X64008Y2159
X58483Y1587
X59145Y38545
X63283Y38545
X58420Y36830
X57135Y4255
X57071Y2731
X59675Y6350
X63485Y6350
X64262Y35751
X65977Y40069
X56515Y39116
X65326Y2223
X61404Y3746
X61214Y34290
X61849Y32194
X62674Y29210
X62674Y28257
X59309Y23876
X59880Y20511
X59880Y19558
X59245Y13970
X59880Y11874
X65326Y4318
X63119Y21844
X63246Y13208
X62611Y16065
X59055Y28575
X63500Y24130
X58786Y10160
X64564Y13208
X64183Y18415
X63464Y1587
X62992Y2096
X62484Y1587
X61976Y2096
X61484Y1587
X61023Y2540
X60484Y1587
X59944Y2159
X59484Y1587
X57213Y34318
X57182Y25382
X57150Y12509
X58928Y2159
X57213Y35306
X56896Y24701
X56881Y13271
X59006Y13271
X63246Y14795
X64458Y1582
X57721Y2159
X59399Y37846
X62965Y37846
X61214Y7366
X57086Y1651
X56610Y2127
X65405Y1397
X62611Y10922
X62611Y9970
X75184Y2159
X69660Y1587
X70321Y38545
X74459Y38545
X69596Y36830
X68311Y4255
X68247Y2731
X70851Y6350
X74661Y6350
X75438Y35751
X77153Y40069
X67691Y39116
X76502Y2223
X72581Y3746
X72390Y34290
X73025Y32194
X73851Y29210
X73851Y28257
X70485Y23876
X71057Y20511
X71057Y19558
X70422Y13970
X71057Y11874
X76502Y4318
X74295Y21844
X74422Y13208
X73787Y16065
X70231Y28575
X74676Y24130
X69962Y10160
X75740Y13208
X75359Y18415
X74640Y1587
X74168Y2096
X73660Y1587
X73152Y2096
X72660Y1587
X72200Y2540
X71660Y1587
X71120Y2159
X70660Y1587
X68390Y34318
X68358Y25382
X68326Y12509
X70104Y2159
X68390Y35306
X68072Y24701
X68057Y13271
X70182Y13271
X74422Y14795
X75634Y1582
X68898Y2159
X70575Y37846
X74142Y37846
X72390Y7366
X68263Y1651
X67786Y2127
X76581Y1397
X73787Y10922
X73787Y9970
X86360Y2159
X80836Y1587
X81497Y38545
X85635Y38545
X80772Y36830
X79487Y4255
X79423Y2731
X82027Y6350
X85837Y6350
X86614Y35751
X88328Y40069
X78867Y39116
X87678Y2223
X83757Y3746
X83566Y34290
X84201Y32194
X85027Y29210
X85027Y28257
X81661Y23876
X82233Y20511
X82233Y19558
X81598Y13970
X82233Y11874
X87678Y4318
X85471Y21844
X85598Y13208
X84963Y16065
X81407Y28575
X85852Y24130
X81138Y10160
X86916Y13208
X86535Y18415
X85816Y1587
X85344Y2096
X84836Y1587
X84328Y2096
X83836Y1587
X83376Y2540
X82836Y1587
X82296Y2159
X81836Y1587
X79566Y34318
X79534Y25382
X79502Y12509
X81280Y2159
X79566Y35306
X79248Y24701
X79233Y13271
X81358Y13271
X85598Y14795
X86810Y1582
X80074Y2159
X81751Y37846
X85318Y37846
X83566Y7366
X79439Y1651
X78962Y2127
X87757Y1397
X84963Y10922
X84963Y9970
X97536Y2159
X92011Y1587
X92673Y38545
X96811Y38545
X91948Y36830
X90663Y4255
X90599Y2731
X93203Y6350
X97013Y6350
X97790Y35751
X99504Y40069
X90043Y39116
X98854Y2223
X94932Y3746
X94742Y34290
X95377Y32194
X96202Y29210
X96202Y28257
X92837Y23876
X93408Y20511
X93408Y19558
X92773Y13970
X93408Y11874
X98854Y4318
X96647Y21844
X96774Y13208
X96139Y16065
X92583Y28575
X97028Y24130
X92314Y10160
X98092Y13208
X97711Y18415
X96992Y1587
X96520Y2096
X96012Y1587
X95504Y2096
X95012Y1587
X94551Y2540
X94012Y1587
X93472Y2159
X93012Y1587
X90741Y34318
X90710Y25382
X90678Y12509
X92456Y2159
X90741Y35306
X90424Y24701
X90409Y13271
X92534Y13271
X96774Y14795
X97986Y1582
X91249Y2159
X92927Y37846
X96493Y37846
X94742Y7366
X90614Y1651
X90138Y2127
X98933Y1397
X96139Y10922
X96139Y9970
X108712Y2159
X103187Y1587
X103849Y38545
X107987Y38545
X103124Y36830
X101839Y4255
X101775Y2731
X104379Y6350
X108189Y6350
X108966Y35751
X110680Y40069
X101219Y39116
X110030Y2223
X106108Y3746
X105918Y34290
X106553Y32194
X107378Y29210
X107378Y28257
X104013Y23876
X104584Y20511
X104584Y19558
X103949Y13970
X104584Y11874
X110030Y4318
X107823Y21844
X107950Y13208
X107315Y16065
X103759Y28575
X108204Y24130
X103490Y10160
X109268Y13208
X108887Y18415
X108168Y1587
X107696Y2096
X107188Y1587
X106680Y2096
X106188Y1587
X105727Y2540
X105188Y1587
X104648Y2159
X104188Y1587
X101917Y34318
X101886Y25382
X101854Y12509
X103632Y2159
X101917Y35306
X101600Y24701
X101585Y13271
X103710Y13271
X107950Y14795
X109162Y1582
X102425Y2159
X104103Y37846
X107669Y37846
X105918Y7366
X101790Y1651
X101314Y2127
X110109Y1397
X107315Y10922
X107315Y9970
X119888Y2159
X114363Y1587
X115025Y38545
X119163Y38545
X114300Y36830
X113015Y4255
X112951Y2731
X115555Y6350
X119365Y6350
X120142Y35751
X121856Y40069
X112395Y39116
X121206Y2223
X117284Y3746
X117094Y34290
X117729Y32194
X118554Y29210
X118554Y28257
X115189Y23876
X115760Y20511
X115760Y19558
X115125Y13970
X115760Y11874
X121206Y4318
X118999Y21844
X119126Y13208
X118491Y16065
X114935Y28575
X119380Y24130
X114666Y10160
X120444Y13208
X120063Y18415
X119344Y1587
X118872Y2096
X118364Y1587
X117856Y2096
X117364Y1587
X116903Y2540
X116364Y1587
X115824Y2159
X115364Y1587
X113093Y34318
X113062Y25382
X113030Y12509
X114808Y2159
X113093Y35306
X112776Y24701
X112761Y13271
X114886Y13271
X119126Y14795
X120338Y1582
X113601Y2159
X115279Y37846
X118845Y37846
X117094Y7366
X112966Y1651
X112490Y2127
X121285Y1397
X118491Y10922
X118491Y9970
X131064Y2159
X125539Y1587
X126201Y38545
X130339Y38545
X125476Y36830
X124191Y4255
X124127Y2731
X126731Y6350
X130541Y6350
X131318Y35751
X133033Y40069
X123571Y39116
X132382Y2223
X128460Y3746
X128270Y34290
X128905Y32194
X129730Y29210
X129730Y28257
X126365Y23876
X126936Y20511
X126936Y19558
X126301Y13970
X126936Y11874
X132382Y4318
X130175Y21844
X130302Y13208
X129667Y16065
X126111Y28575
X130556Y24130
X125842Y10160
X131620Y13208
X131239Y18415
X130520Y1587
X130048Y2096
X129540Y1587
X129032Y2096
X128540Y1587
X128079Y2540
X127540Y1587
X127000Y2159
X126540Y1587
X124269Y34318
X124238Y25382
X124206Y12509
X125984Y2159
X124269Y35306
X123952Y24701
X123937Y13271
X126062Y13271
X130302Y14795
X131514Y1582
X124777Y2159
X126455Y37846
X130021Y37846
X128270Y7366
X124142Y1651
X123666Y2127
X132461Y1397
X129667Y10922
X129667Y9970
X142240Y2159
X136716Y1587
X137377Y38545
X141515Y38545
X136652Y36830
X135367Y4255
X135303Y2731
X137907Y6350
X141717Y6350
X142494Y35751
X144209Y40069
X134747Y39116
X143558Y2223
X139637Y3746
X139446Y34290
X140081Y32194
X140907Y29210
X140907Y28257
X137541Y23876
X138113Y20511
X138113Y19558
X137478Y13970
X138113Y11874
X143558Y4318
X141351Y21844
X141478Y13208
X140843Y16065
X137287Y28575
X141732Y24130
X137018Y10160
X142796Y13208
X142415Y18415
X141696Y1587
X141224Y2096
X140716Y1587
X140208Y2096
X139716Y1587
X139256Y2540
X138716Y1587
X138176Y2159
X137716Y1587
X135446Y34318
X135414Y25382
X135382Y12509
X137160Y2159
X135446Y35306
X135128Y24701
X135113Y13271
X137238Y13271
X141478Y14795
X142690Y1582
X135954Y2159
X137631Y37846
X141198Y37846
X139446Y7366
X135319Y1651
X134842Y2127
X143637Y1397
X140843Y10922
X140843Y9970
X153416Y2159
X147892Y1587
X148553Y38545
X152691Y38545
X147828Y36830
X146543Y4255
X146479Y2731
X149083Y6350
X152893Y6350
X153670Y35751
X155385Y40069
X145923Y39116
X154734Y2223
X150813Y3746
X150622Y34290
X151257Y32194
X152083Y29210
X152083Y28257
X148717Y23876
X149289Y20511
X149289Y19558
X148654Y13970
X149289Y11874
X154734Y4318
X152527Y21844
X152654Y13208
X152019Y16065
X148463Y28575
X152908Y24130
X148194Y10160
X153972Y13208
X153591Y18415
X152872Y1587
X152400Y2096
X151892Y1587
X151384Y2096
X150892Y1587
X150432Y2540
X149892Y1587
X149352Y2159
X148892Y1587
X146622Y34318
X146590Y25382
X146558Y12509
X148336Y2159
X146622Y35306
X146304Y24701
X146289Y13271
X148414Y13271
X152654Y14795
X153866Y1582
X147130Y2159
X148807Y37846
X152374Y37846
X150622Y7366
X146495Y1651
X146018Y2127
X154813Y1397
X152019Y10922
X152019Y9970
X164592Y2159
X159068Y1587
X159729Y38545
X163867Y38545
X159004Y36830
X157719Y4255
X157655Y2731
X160259Y6350
X164069Y6350
X164846Y35751
X166561Y40069
X157099Y39116
X165910Y2223
X161989Y3746
X161798Y34290
X162433Y32194
X163259Y29210
X163259Y28257
X159893Y23876
X160465Y20511
X160465Y19558
X159830Y13970
X160465Y11874
X165910Y4318
X163703Y21844
X163830Y13208
X163195Y16065
X159639Y28575
X164084Y24130
X159370Y10160
X165148Y13208
X164767Y18415
X164048Y1587
X163576Y2096
X163068Y1587
X162560Y2096
X162068Y1587
X161608Y2540
X161068Y1587
X160528Y2159
X160068Y1587
X157798Y34318
X157766Y25382
X157734Y12509
X159512Y2159
X157798Y35306
X157480Y24701
X157465Y13271
X159590Y13271
X163830Y14795
X165042Y1582
X158306Y2159
X159983Y37846
X163550Y37846
X161798Y7366
X157671Y1651
X157194Y2127
X165989Y1397
X163195Y10922
X163195Y9970
X175768Y2159
X170244Y1587
X170905Y38545
X175043Y38545
X170180Y36830
X168895Y4255
X168831Y2731
X171435Y6350
X175245Y6350
X176022Y35751
X177736Y40069
X168275Y39116
X177086Y2223
X173165Y3746
X172974Y34290
X173609Y32194
X174435Y29210
X174435Y28257
X171069Y23876
X171641Y20511
X171641Y19558
X171006Y13970
X171641Y11874
X177086Y4318
X174879Y21844
X175006Y13208
X174371Y16065
X170815Y28575
X175260Y24130
X170546Y10160
X176324Y13208
X175943Y18415
X175224Y1587
X174752Y2096
X174244Y1587
X173736Y2096
X173244Y1587
X172784Y2540
X172244Y1587
X171704Y2159
X171244Y1587
X168974Y34318
X168942Y25382
X168910Y12509
X170688Y2159
X168974Y35306
X168656Y24701
X168641Y13271
X170766Y13271
X175006Y14795
X176218Y1582
X169482Y2159
X171159Y37846
X174726Y37846
X172974Y7366
X168847Y1651
X168370Y2127
X177165Y1397
X174371Y10922
X174371Y9970
X8128Y43307
X2604Y42736
X3265Y79693
X7403Y79693
X2540Y77978
X1255Y45402
X1191Y43878
X3795Y47498
X7605Y47498
X8382Y76899
X10097Y81217
X635Y80264
X9446Y43371
X5524Y44894
X5334Y75438
X5969Y73343
X6794Y70358
X6794Y69406
X3429Y65024
X4000Y61658
X4000Y60706
X3365Y55118
X4000Y53022
X9446Y45466
X7239Y62992
X7366Y54356
X6731Y57213
X3175Y69723
X7620Y65278
X2906Y51308
X8684Y54356
X8303Y59563
X7584Y42736
X7112Y43244
X6604Y42736
X6096Y43244
X5604Y42736
X5144Y43688
X4604Y42736
X4064Y43307
X3604Y42736
X1334Y75466
X1302Y66531
X1270Y53657
X3048Y43307
X1334Y76454
X1016Y65850
X1001Y54419
X3126Y54419
X7366Y55943
X8578Y42730
X1841Y43307
X3519Y78994
X7085Y78994
X5334Y48514
X1207Y42799
X730Y43275
X9525Y42545
X6731Y52070
X6731Y51117
X19304Y43307
X13779Y42736
X14441Y79693
X18579Y79693
X13716Y77978
X12431Y45402
X12367Y43878
X14971Y47498
X18781Y47498
X19558Y76899
X21273Y81217
X11811Y80264
X20622Y43371
X16701Y44894
X16510Y75438
X17145Y73343
X17971Y70358
X17971Y69406
X14605Y65024
X15176Y61658
X15176Y60706
X14541Y55118
X15176Y53022
X20622Y45466
X18415Y62992
X18542Y54356
X17907Y57213
X14351Y69723
X18796Y65278
X14082Y51308
X19860Y54356
X19479Y59563
X18760Y42736
X18288Y43244
X17780Y42736
X17272Y43244
X16780Y42736
X16319Y43688
X15780Y42736
X15240Y43307
X14780Y42736
X12509Y75466
X12478Y66531
X12446Y53657
X14224Y43307
X12509Y76454
X12192Y65850
X12177Y54419
X14302Y54419
X18542Y55943
X19754Y42730
X13017Y43307
X14695Y78994
X18262Y78994
X16510Y48514
X12382Y42799
X11906Y43275
X20701Y42545
X17907Y52070
X17907Y51117
X30480Y43307
X24955Y42736
X25617Y79693
X29755Y79693
X24892Y77978
X23607Y45402
X23543Y43878
X26147Y47498
X29957Y47498
X30734Y76899
X32448Y81217
X22987Y80264
X31798Y43371
X27876Y44894
X27686Y75438
X28321Y73343
X29146Y70358
X29146Y69406
X25781Y65024
X26352Y61658
X26352Y60706
X25717Y55118
X26352Y53022
X31798Y45466
X29591Y62992
X29718Y54356
X29083Y57213
X25527Y69723
X29972Y65278
X25258Y51308
X31036Y54356
X30655Y59563
X29936Y42736
X29464Y43244
X28956Y42736
X28448Y43244
X27956Y42736
X27495Y43688
X26956Y42736
X26416Y43307
X25956Y42736
X23685Y75466
X23654Y66531
X23622Y53657
X25400Y43307
X23685Y76454
X23368Y65850
X23353Y54419
X25478Y54419
X29718Y55943
X30930Y42730
X24193Y43307
X25871Y78994
X29437Y78994
X27686Y48514
X23558Y42799
X23082Y43275
X31877Y42545
X29083Y52070
X29083Y51117
X41656Y43307
X36132Y42736
X36793Y79693
X40931Y79693
X36068Y77978
X34783Y45402
X34719Y43878
X37323Y47498
X41133Y47498
X41910Y76899
X43625Y81217
X34163Y80264
X42974Y43371
X39053Y44894
X38862Y75438
X39497Y73343
X40323Y70358
X40323Y69406
X36957Y65024
X37529Y61658
X37529Y60706
X36894Y55118
X37529Y53022
X42974Y45466
X40767Y62992
X40894Y54356
X40259Y57213
X36703Y69723
X41148Y65278
X36434Y51308
X42212Y54356
X41831Y59563
X41112Y42736
X40640Y43244
X40132Y42736
X39624Y43244
X39132Y42736
X38672Y43688
X38132Y42736
X37592Y43307
X37132Y42736
X34862Y75466
X34830Y66531
X34798Y53657
X36576Y43307
X34862Y76454
X34544Y65850
X34529Y54419
X36654Y54419
X40894Y55943
X42106Y42730
X35370Y43307
X37047Y78994
X40614Y78994
X38862Y48514
X34735Y42799
X34258Y43275
X43053Y42545
X40259Y52070
X40259Y51117
X52832Y43307
X47307Y42736
X47969Y79693
X52107Y79693
X47244Y77978
X45959Y45402
X45895Y43878
X48499Y47498
X52309Y47498
X53086Y76899
X54800Y81217
X45339Y80264
X54150Y43371
X50228Y44894
X50038Y75438
X50673Y73343
X51498Y70358
X51498Y69406
X48133Y65024
X48704Y61658
X48704Y60706
X48069Y55118
X48704Y53022
X54150Y45466
X51943Y62992
X52070Y54356
X51435Y57213
X47879Y69723
X52324Y65278
X47610Y51308
X53388Y54356
X53007Y59563
X52288Y42736
X51816Y43244
X51308Y42736
X50800Y43244
X50308Y42736
X49847Y43688
X49308Y42736
X48768Y43307
X48308Y42736
X46037Y75466
X46006Y66531
X45974Y53657
X47752Y43307
X46037Y76454
X45720Y65850
X45705Y54419
X47830Y54419
X52070Y55943
X53282Y42730
X46545Y43307
X48223Y78994
X51789Y78994
X50038Y48514
X45910Y42799
X45434Y43275
X54229Y42545
X51435Y52070
X51435Y51117
X64008Y43307
X58483Y42736
X59145Y79693
X63283Y79693
X58420Y77978
X57135Y45402
X57071Y43878
X59675Y47498
X63485Y47498
X64262Y76899
X65977Y81217
X56515Y80264
X65326Y43371
X61404Y44894
X61214Y75438
X61849Y73343
X62674Y70358
X62674Y69406
X59309Y65024
X59880Y61658
X59880Y60706
X59245Y55118
X59880Y53022
X65326Y45466
X63119Y62992
X63246Y54356
X62611Y57213
X59055Y69723
X63500Y65278
X58786Y51308
X64564Y54356
X64183Y59563
X63464Y42736
X62992Y43244
X62484Y42736
X61976Y43244
X61484Y42736
X61023Y43688
X60484Y42736
X59944Y43307
X59484Y42736
X57213Y75466
X57182Y66531
X57150Y53657
X58928Y43307
X57213Y76454
X56896Y65850
X56881Y54419
X59006Y54419
X63246Y55943
X64458Y42730
X57721Y43307
X59399Y78994
X62965Y78994
X61214Y48514
X57086Y42799
X56610Y43275
X65405Y42545
X62611Y52070
X62611Y51117
X75184Y43307
X69660Y42736
X70321Y79693
X74459Y79693
X69596Y77978
X68311Y45402
X68247Y43878
X70851Y47498
X74661Y47498
X75438Y76899
X77153Y81217
X67691Y80264
X76502Y43371
X72581Y44894
X72390Y75438
X73025Y73343
X73851Y70358
X73851Y69406
X70485Y65024
X71057Y61658
X71057Y60706
X70422Y55118
X71057Y53022
X76502Y45466
X74295Y62992
X74422Y54356
X73787Y57213
X70231Y69723
X74676Y65278
X69962Y51308
X75740Y54356
X75359Y59563
X74640Y42736
X74168Y43244
X73660Y42736
X73152Y43244
X72660Y42736
X72200Y43688
X71660Y42736
X71120Y43307
X70660Y42736
X68390Y75466
X68358Y66531
X68326Y53657
X70104Y43307
X68390Y76454
X68072Y65850
X68057Y54419
X70182Y54419
X74422Y55943
X75634Y42730
X68898Y43307
X70575Y78994
X74142Y78994
X72390Y48514
X68263Y42799
X67786Y43275
X76581Y42545
X73787Y52070
X73787Y51117
X86360Y43307
X80836Y42736
X81497Y79693
X85635Y79693
X80772Y77978
X79487Y45402
X79423Y43878
X82027Y47498
X85837Y47498
X86614Y76899
X88328Y81217
X78867Y80264
X87678Y43371
X83757Y44894
X83566Y75438
X84201Y73343
X85027Y70358
X85027Y69406
X81661Y65024
X82233Y61658
X82233Y60706
X81598Y55118
X82233Y53022
X87678Y45466
X85471Y62992
X85598Y54356
X84963Y57213
X81407Y69723
X85852Y65278
X81138Y51308
X86916Y54356
X86535Y59563
X85816Y42736
X85344Y43244
X84836Y42736
X84328Y43244
X83836Y42736
X83376Y43688
X82836Y42736
X82296Y43307
X81836Y42736
X79566Y75466
X79534Y66531
X79502Y53657
X81280Y43307
X79566Y76454
X79248Y65850
X79233Y54419
X81358Y54419
X85598Y55943
X86810Y42730
X80074Y43307
X81751Y78994
X85318Y78994
X83566Y48514
X79439Y42799
X78962Y43275
X87757Y42545
X84963Y52070
X84963Y51117
X97536Y43307
X92011Y42736
X92673Y79693
X96811Y79693
X91948Y77978
X90663Y45402
X90599Y43878
X93203Y47498
X97013Y47498
X97790Y76899
X99504Y81217
X90043Y80264
X98854Y43371
X94932Y44894
X94742Y75438
X95377Y73343
X96202Y70358
X96202Y69406
X92837Y65024
X93408Y61658
X93408Y60706
X92773Y55118
X93408Y53022
X98854Y45466
X96647Y62992
X96774Y54356
X96139Y57213
X92583Y69723
X97028Y65278
X92314Y51308
X98092Y54356
X97711Y59563
X96992Y42736
X96520Y43244
X96012Y42736
X95504Y43244
X95012Y42736
X94551Y43688
X94012Y42736
X93472Y43307
X93012Y42736
X90741Y75466
X90710Y66531
X90678Y53657
X92456Y43307
X90741Y76454
X90424Y65850
X90409Y54419
X92534Y54419
X96774Y55943
X97986Y42730
X91249Y43307
X92927Y78994
X96493Y78994
X94742Y48514
X90614Y42799
X90138Y43275
X98933Y42545
X96139Y52070
X96139Y51117
X108712Y43307
X103187Y42736
X103849Y79693
X107987Y79693
X103124Y77978
X101839Y45402
X101775Y43878
X104379Y47498
X108189Y47498
X108966Y76899
X110680Y81217
X101219Y80264
X110030Y43371
X106108Y44894
X105918Y75438
X106553Y73343
X107378Y70358
X107378Y69406
X104013Y65024
X104584Y61658
X104584Y60706
X103949Y55118
X104584Y53022
X110030Y45466
X107823Y62992
X107950Y54356
X107315Y57213
X103759Y69723
X108204Y65278
X103490Y51308
X109268Y54356
X108887Y59563
X108168Y42736
X107696Y43244
X107188Y42736
X106680Y43244
X106188Y42736
X105727Y43688
X105188Y42736
X104648Y43307
X104188Y42736
X101917Y75466
X101886Y66531
X101854Y53657
X103632Y43307
X101917Y76454
X101600Y65850
X101585Y54419
X103710Y54419
X107950Y55943
X109162Y42730
X102425Y43307
X104103Y78994
X107669Y78994
X105918Y48514
X101790Y42799
X101314Y43275
X110109Y42545
X107315Y52070
X107315Y51117
X119888Y43307
X114363Y42736
X115025Y79693
X119163Y79693
X114300Y77978
X113015Y45402
X112951Y43878
X115555Y47498
X119365Y47498
X120142Y76899
X121856Y81217
X112395Y80264
X121206Y43371
X117284Y44894
X117094Y75438
X117729Y73343
X118554Y70358
X118554Y69406
X115189Y65024
X115760Y61658
X115760Y60706
X115125Y55118
X115760Y53022
X121206Y45466
X118999Y62992
X119126Y54356
X118491Y57213
X114935Y69723
X119380Y65278
X114666Y51308
X120444Y54356
X120063Y59563
X119344Y42736
X118872Y43244
X118364Y42736
X117856Y43244
X117364Y42736
X116903Y43688
X116364Y42736
X115824Y43307
X115364Y42736
X113093Y75466
X113062Y66531
X113030Y53657
X114808Y43307
X113093Y76454
X112776Y65850
X112761Y54419
X114886Y54419
X119126Y55943
X120338Y42730
X113601Y43307
X115279Y78994
X118845Y78994
X117094Y48514
X112966Y42799
X112490Y43275
X121285Y42545
X118491Y52070
X118491Y51117
X131064Y43307
X125539Y42736
X126201Y79693
X130339Y79693
X125476Y77978
X124191Y45402
X124127Y43878
X126731Y47498
X130541Y47498
X131318Y76899
X133033Y81217
X123571Y80264
X132382Y43371
X128460Y44894
X128270Y75438
X128905Y73343
X129730Y70358
X129730Y69406
X126365Y65024
X126936Y61658
X126936Y60706
X126301Y55118
X126936Y53022
X132382Y45466
X130175Y62992
X130302Y54356
X129667Y57213
X126111Y69723
X130556Y65278
X125842Y51308
X131620Y54356
X131239Y59563
X130520Y42736
X130048Y43244
X129540Y42736
X129032Y43244
X128540Y42736
X128079Y43688
X127540Y42736
X127000Y43307
X126540Y42736
X124269Y75466
X124238Y66531
X124206Y53657
X125984Y43307
X124269Y76454
X123952Y65850
X123937Y54419
X126062Y54419
X130302Y55943
X131514Y42730
X124777Y43307
X126455Y78994
X130021Y78994
X128270Y48514
X124142Y42799
X123666Y43275
X132461Y42545
X129667Y52070
X129667Y51117
X142240Y43307
X136716Y42736
X137377Y79693
X141515Y79693
X136652Y77978
X135367Y45402
X135303Y43878
X137907Y47498
X141717Y47498
X142494Y76899
X144209Y81217
X134747Y80264
X143558Y43371
X139637Y44894
X139446Y75438
X140081Y73343
X140907Y70358
X140907Y69406
X137541Y65024
X138113Y61658
X138113Y60706
X137478Y55118
X138113Y53022
X143558Y45466
X141351Y62992
X141478Y54356
X140843Y57213
X137287Y69723
X141732Y65278
X137018Y51308
X142796Y54356
X142415Y59563
X141696Y42736
X141224Y43244
X140716Y42736
X140208Y43244
X139716Y42736
X139256Y43688
X138716Y42736
X138176Y43307
X137716Y42736
X135446Y75466
X135414Y66531
X135382Y53657
X137160Y43307
X135446Y76454
X135128Y65850
X135113Y54419
X137238Y54419
X141478Y55943
X142690Y42730
X135954Y43307
X137631Y78994
X141198Y78994
X139446Y48514
X135319Y42799
X134842Y43275
X143637Y42545
X140843Y52070
X140843Y51117
X153416Y43307
X147892Y42736
X148553Y79693
X152691Y79693
X147828Y77978
X146543Y45402
X146479Y43878
X149083Y47498
X152893Y47498
X153670Y76899
X155385Y81217
X145923Y80264
X154734Y43371
X150813Y44894
X150622Y75438
X151257Y73343
X152083Y70358
X152083Y69406
X148717Y65024
X149289Y61658
X149289Y60706
X148654Y55118
X149289Y53022
X154734Y45466
X152527Y62992
X152654Y54356
X152019Y57213
X148463Y69723
X152908Y65278
X148194Y51308
X153972Y54356
X153591Y59563
X152872Y42736
X152400Y43244
X151892Y42736
X151384Y43244
X150892Y42736
X150432Y43688
X149892Y42736
X149352Y43307
X148892Y42736
X146622Y75466
X146590Y66531
X146558Y53657
X148336Y43307
X146622Y76454
X146304Y65850
X146289Y54419
X148414Y54419
X152654Y55943
X153866Y42730
X147130Y43307
X148807Y78994
X152374Y78994
X150622Y48514
X146495Y42799
X146018Y43275
X154813Y42545
X152019Y52070
X152019Y51117
X164592Y43307
X159068Y42736
X159729Y79693
X163867Y79693
X159004Y77978
X157719Y45402
X157655Y43878
X160259Y47498
X164069Y47498
X164846Y76899
X166561Y81217
X157099Y80264
X165910Y43371
X161989Y44894
X161798Y75438
X162433Y73343
X163259Y70358
X163259Y69406
X159893Y65024
X160465Y61658
X160465Y60706
X159830Y55118
X160465Y53022
X165910Y45466
X163703Y62992
X163830Y54356
X163195Y57213
X159639Y69723
X164084Y65278
X159370Y51308
X165148Y54356
X164767Y59563
X164048Y42736
X163576Y43244
X163068Y42736
X162560Y43244
X162068Y42736
X161608Y43688
X161068Y42736
X160528Y43307
X160068Y42736
X157798Y75466
X157766Y66531
X157734Y53657
X159512Y43307
X157798Y76454
X157480Y65850
X157465Y54419
X159590Y54419
X163830Y55943
X165042Y42730
X158306Y43307
X159983Y78994
X163550Y78994
X161798Y48514
X157671Y42799
X157194Y43275
X165989Y42545
X163195Y52070
X163195Y51117
X175768Y43307
X170244Y42736
X170905Y79693
X175043Y79693
X170180Y77978
X168895Y45402
X168831Y43878
X171435Y47498
X175245Y47498
X176022Y76899
X177736Y81217
X168275Y80264
X177086Y43371
X173165Y44894
X172974Y75438
X173609Y73343
X174435Y70358
X174435Y69406
X171069Y65024
X171641Y61658
X171641Y60706
X171006Y55118
X171641Y53022
X177086Y45466
X174879Y62992
X175006Y54356
X174371Y57213
X170815Y69723
X175260Y65278
X170546Y51308
X176324Y54356
X175943Y59563
X175224Y42736
X174752Y43244
X174244Y42736
X173736Y43244
X173244Y42736
X172784Y43688
X172244Y42736
X171704Y43307
X171244Y42736
X168974Y75466
X168942Y66531
X168910Y53657
X170688Y43307
X168974Y76454
X168656Y65850
X168641Y54419
X170766Y54419
X175006Y55943
X176218Y42730
X169482Y43307
X171159Y78994
X174726Y78994
X172974Y48514
X168847Y42799
X168370Y43275
X177165Y42545
X174371Y52070
X174371Y51117
X8128Y84455
X2604Y83884
X3265Y120840
X7403Y120840
X2540Y119126
X1255Y86551
X1191Y85027
X3795Y88646
X7605Y88646
X8382Y118046
X10097Y122364
X635Y121412
X9446Y84519
X5524Y86043
X5334Y116586
X5969Y114490
X6794Y111506
X6794Y110553
X3429Y106172
X4000Y102806
X4000Y101854
X3365Y96266
X4000Y94170
X9446Y86614
X7239Y104140
X7366Y95504
X6731Y98361
X3175Y110871
X7620Y106426
X2906Y92456
X8684Y95504
X8303Y100711
X7584Y83884
X7112Y84392
X6604Y83884
X6096Y84392
X5604Y83884
X5144Y84836
X4604Y83884
X4064Y84455
X3604Y83884
X1334Y116614
X1302Y107678
X1270Y94805
X3048Y84455
X1334Y117602
X1016Y106997
X1001Y95567
X3126Y95567
X7366Y97091
X8578Y83878
X1841Y84455
X3519Y120142
X7085Y120142
X5334Y89662
X1207Y83947
X730Y84423
X9525Y83693
X6731Y93218
X6731Y92265
X19304Y84455
X13779Y83884
X14441Y120840
X18579Y120840
X13716Y119126
X12431Y86551
X12367Y85027
X14971Y88646
X18781Y88646
X19558Y118046
X21273Y122364
X11811Y121412
X20622Y84519
X16701Y86043
X16510Y116586
X17145Y114490
X17971Y111506
X17971Y110553
X14605Y106172
X15176Y102806
X15176Y101854
X14541Y96266
X15176Y94170
X20622Y86614
X18415Y104140
X18542Y95504
X17907Y98361
X14351Y110871
X18796Y106426
X14082Y92456
X19860Y95504
X19479Y100711
X18760Y83884
X18288Y84392
X17780Y83884
X17272Y84392
X16780Y83884
X16319Y84836
X15780Y83884
X15240Y84455
X14780Y83884
X12509Y116614
X12478Y107678
X12446Y94805
X14224Y84455
X12509Y117602
X12192Y106997
X12177Y95567
X14302Y95567
X18542Y97091
X19754Y83878
X13017Y84455
X14695Y120142
X18262Y120142
X16510Y89662
X12382Y83947
X11906Y84423
X20701Y83693
X17907Y93218
X17907Y92265
X30480Y84455
X24955Y83884
X25617Y120840
X29755Y120840
X24892Y119126
X23607Y86551
X23543Y85027
X26147Y88646
X29957Y88646
X30734Y118046
X32448Y122364
X22987Y121412
X31798Y84519
X27876Y86043
X27686Y116586
X28321Y114490
X29146Y111506
X29146Y110553
X25781Y106172
X26352Y102806
X26352Y101854
X25717Y96266
X26352Y94170
X31798Y86614
X29591Y104140
X29718Y95504
X29083Y98361
X25527Y110871
X29972Y106426
X25258Y92456
X31036Y95504
X30655Y100711
X29936Y83884
X29464Y84392
X28956Y83884
X28448Y84392
X27956Y83884
X27495Y84836
X26956Y83884
X26416Y84455
X25956Y83884
X23685Y116614
X23654Y107678
X23622Y94805
X25400Y84455
X23685Y117602
X23368Y106997
X23353Y95567
X25478Y95567
X29718Y97091
X30930Y83878
X24193Y84455
X25871Y120142
X29437Y120142
X27686Y89662
X23558Y83947
X23082Y84423
X31877Y83693
X29083Y93218
X29083Y92265
X41656Y84455
X36132Y83884
X36793Y120840
X40931Y120840
X36068Y119126
X34783Y86551
X34719Y85027
X37323Y88646
X41133Y88646
X41910Y118046
X43625Y122364
X34163Y121412
X42974Y84519
X39053Y86043
X38862Y116586
X39497Y114490
X40323Y111506
X40323Y110553
X36957Y106172
X37529Y102806
X37529Y101854
X36894Y96266
X37529Y94170
X42974Y86614
X40767Y104140
X40894Y95504
X40259Y98361
X36703Y110871
X41148Y106426
X36434Y92456
X42212Y95504
X41831Y100711
X41112Y83884
X40640Y84392
X40132Y83884
X39624Y84392
X39132Y83884
X38672Y84836
X38132Y83884
X37592Y84455
X37132Y83884
X34862Y116614
X34830Y107678
X34798Y94805
X36576Y84455
X34862Y117602
X34544Y106997
X34529Y95567
X36654Y95567
X40894Y97091
X42106Y83878
X35370Y84455
X37047Y120142
X40614Y120142
X38862Y89662
X34735Y83947
X34258Y84423
X43053Y83693
X40259Y93218
X40259Y92265
X52832Y84455
X47307Y83884
X47969Y120840
X52107Y120840
X47244Y119126
X45959Y86551
X45895Y85027
X48499Y88646
X52309Y88646
X53086Y118046
X54800Y122364
X45339Y121412
X54150Y84519
X50228Y86043
X50038Y116586
X50673Y114490
X51498Y111506
X51498Y110553
X48133Y106172
X48704Y102806
X48704Y101854
X48069Y96266
X48704Y94170
X54150Y86614
X51943Y104140
X52070Y95504
X51435Y98361
X47879Y110871
X52324Y106426
X47610Y92456
X53388Y95504
X53007Y100711
X52288Y83884
X51816Y84392
X51308Y83884
X50800Y84392
X50308Y83884
X49847Y84836
X49308Y83884
X48768Y84455
X48308Y83884
X46037Y116614
X46006Y107678
X45974Y94805
X47752Y84455
X46037Y117602
X45720Y106997
X45705Y95567
X47830Y95567
X52070Y97091
X53282Y83878
X46545Y84455
X48223Y120142
X51789Y120142
X50038Y89662
X45910Y83947
X45434Y84423
X54229Y83693
X51435Y93218
X51435Y92265
X64008Y84455
X58483Y83884
X59145Y120840
X63283Y120840
X58420Y119126
X57135Y86551
X57071Y85027
X59675Y88646
X63485Y88646
X64262Y118046
X65977Y122364
X56515Y121412
X65326Y84519
X61404Y86043
X61214Y116586
X61849Y114490
X62674Y111506
X62674Y110553
X59309Y106172
X59880Y102806
X59880Y101854
X59245Y96266
X59880Y94170
X65326Y86614
X63119Y104140
X63246Y95504
X62611Y98361
X59055Y110871
X63500Y106426
X58786Y92456
X64564Y95504
X64183Y100711
X63464Y83884
X62992Y84392
X62484Y83884
X61976Y84392
X61484Y83884
X61023Y84836
X60484Y83884
X59944Y84455
X59484Y83884
X57213Y116614
X57182Y107678
X57150Y94805
X58928Y84455
X57213Y117602
X56896Y106997
X56881Y95567
X59006Y95567
X63246Y97091
X64458Y83878
X57721Y84455
X59399Y120142
X62965Y120142
X61214Y89662
X57086Y83947
X56610Y84423
X65405Y83693
X62611Y93218
X62611Y92265
X75184Y84455
X69660Y83884
X70321Y120840
X74459Y120840
X69596Y119126
X68311Y86551
X68247Y85027
X70851Y88646
X74661Y88646
X75438Y118046
X77153Y122364
X67691Y121412
X76502Y84519
X72581Y86043
X72390Y116586
X73025Y114490
X73851Y111506
X73851Y110553
X70485Y106172
X71057Y102806
X71057Y101854
X70422Y96266
X71057Y94170
X76502Y86614
X74295Y104140
X74422Y95504
X73787Y98361
X70231Y110871
X74676Y106426
X69962Y92456
X75740Y95504
X75359Y100711
X74640Y83884
X74168Y84392
X73660Y83884
X73152Y84392
X72660Y83884
X72200Y84836
X71660Y83884
X71120Y84455
X70660Y83884
X68390Y116614
X68358Y107678
X68326Y94805
X70104Y84455
X68390Y117602
X68072Y106997
X68057Y95567
X70182Y95567
X74422Y97091
X75634Y83878
X68898Y84455
X70575Y120142
X74142Y120142
X72390Y89662
X68263Y83947
X67786Y84423
X76581Y83693
X73787Y93218
X73787Y92265
X86360Y84455
X80836Y83884
X81497Y120840
X85635Y120840
X80772Y119126
X79487Y86551
X79423Y85027
X82027Y88646
X85837Y88646
X86614Y118046
X88328Y122364
X78867Y121412
X87678Y84519
X83757Y86043
X83566Y116586
X84201Y114490
X85027Y111506
X85027Y110553
X81661Y106172
X82233Y102806
X82233Y101854
X81598Y96266
X82233Y94170
X87678Y86614
X85471Y104140
X85598Y95504
X84963Y98361
X81407Y110871
X85852Y106426
X81138Y92456
X86916Y95504
X86535Y100711
X85816Y83884
X85344Y84392
X84836Y83884
X84328Y84392
X83836Y83884
X83376Y84836
X82836Y83884
X82296Y84455
X81836Y83884
X79566Y116614
X79534Y107678
X79502Y94805
X81280Y84455
X79566Y117602
X79248Y106997
X79233Y95567
X81358Y95567
X85598Y97091
X86810Y83878
X80074Y84455
X81751Y120142
X85318Y120142
X83566Y89662
X79439Y83947
X78962Y84423
X87757Y83693
X84963Y93218
X84963Y92265
X97536Y84455
X92011Y83884
X92673Y120840
X96811Y120840
X91948Y119126
X90663Y86551
X90599Y85027
X93203Y88646
X97013Y88646
X97790Y118046
X99504Y122364
X90043Y121412
X98854Y84519
X94932Y86043
X94742Y116586
X95377Y114490
X96202Y111506
X96202Y110553
X92837Y106172
X93408Y102806
X93408Y101854
X92773Y96266
X93408Y94170
X98854Y86614
X96647Y104140
X96774Y95504
X96139Y98361
X92583Y110871
X97028Y106426
X92314Y92456
X98092Y95504
X97711Y100711
X96992Y83884
X96520Y84392
X96012Y83884
X95504Y84392
X95012Y83884
X94551Y84836
X94012Y83884
X93472Y84455
X93012Y83884
X90741Y116614
X90710Y107678
X90678Y94805
X92456Y84455
X90741Y117602
X90424Y106997
X90409Y95567
X92534Y95567
X96774Y97091
X97986Y83878
X91249Y84455
X92927Y120142
X96493Y120142
X94742Y89662
X90614Y83947
X90138Y84423
X98933Y83693
X96139Y93218
X96139Y92265
X108712Y84455
X103187Y83884
X103849Y120840
X107987Y120840
X103124Y119126
X101839Y86551
X101775Y85027
X104379Y88646
X108189Y88646
X108966Y118046
X110680Y122364
X101219Y121412
X110030Y84519
X106108Y86043
X105918Y116586
X106553Y114490
X107378Y111506
X107378Y110553
X104013Y106172
X104584Y102806
X104584Y101854
X103949Y96266
X104584Y94170
X110030Y86614
X107823Y104140
X107950Y95504
X107315Y98361
X103759Y110871
X108204Y106426
X103490Y92456
X109268Y95504
X108887Y100711
X108168Y83884
X107696Y84392
X107188Y83884
X106680Y84392
X106188Y83884
X105727Y84836
X105188Y83884
X104648Y84455
X104188Y83884
X101917Y116614
X101886Y107678
X101854Y94805
X103632Y84455
X101917Y117602
X101600Y106997
X101585Y95567
X103710Y95567
X107950Y97091
X109162Y83878
X102425Y84455
X104103Y120142
X107669Y120142
X105918Y89662
X101790Y83947
X101314Y84423
X110109Y83693
X107315Y93218
X107315Y92265
X119888Y84455
X114363Y83884
X115025Y120840
X119163Y120840
X114300Y119126
X113015Y86551
X112951Y85027
X115555Y88646
X119365Y88646
X120142Y118046
X121856Y122364
X112395Y121412
X121206Y84519
X117284Y86043
X117094Y116586
X117729Y114490
X118554Y111506
X118554Y110553
X115189Y106172
X115760Y102806
X115760Y101854
X115125Y96266
X115760Y94170
X121206Y86614
X118999Y104140
X119126Y95504
X118491Y98361
X114935Y110871
X119380Y106426
X114666Y92456
X120444Y95504
X120063Y100711
X119344Y83884
X118872Y84392
X118364Y83884
X117856Y84392
X117364Y83884
X116903Y84836
X116364Y83884
X115824Y84455
X115364Y83884
X113093Y116614
X113062Y107678
X113030Y94805
X114808Y84455
X113093Y117602
X112776Y106997
X112761Y95567
X114886Y95567
X119126Y97091
X120338Y83878
X113601Y84455
X115279Y120142
X118845Y120142
X117094Y89662
X112966Y83947
X112490Y84423
X121285Y83693
X118491Y93218
X118491Y92265
X131064Y84455
X125539Y83884
X126201Y120840
X130339Y120840
X125476Y119126
X124191Y86551
X124127Y85027
X126731Y88646
X130541Y88646
X131318Y118046
X133033Y122364
X123571Y121412
X132382Y84519
X128460Y86043
X128270Y116586
X128905Y114490
X129730Y111506
X129730Y110553
X126365Y106172
X126936Y102806
X126936Y101854
X126301Y96266
X126936Y94170
X132382Y86614
X130175Y104140
X130302Y95504
X129667Y98361
X126111Y110871
X130556Y106426
X125842Y92456
X131620Y95504
X131239Y100711
X130520Y83884
X130048Y84392
X129540Y83884
X129032Y84392
X128540Y83884
X128079Y84836
X127540Y83884
X127000Y84455
X126540Y83884
X124269Y116614
X124238Y107678
X124206Y94805
X125984Y84455
X124269Y117602
X123952Y106997
X123937Y95567
X126062Y95567
X130302Y97091
X131514Y83878
X124777Y84455
X126455Y120142
X130021Y120142
X128270Y89662
X124142Y83947
X123666Y84423
X132461Y83693
X129667Y93218
X129667Y92265
X142240Y84455
X136716Y83884
X137377Y120840
X141515Y120840
X136652Y119126
X135367Y86551
X135303Y85027
X137907Y88646
X141717Y88646
X142494Y118046
X144209Y122364
X134747Y121412
X143558Y84519
X139637Y86043
X139446Y116586
X140081Y114490
X140907Y111506
X140907Y110553
X137541Y106172
X138113Y102806
X138113Y101854
X137478Y96266
X138113Y94170
X143558Y86614
X141351Y104140
X141478Y95504
X140843Y98361
X137287Y110871
X141732Y106426
X137018Y92456
X142796Y95504
X142415Y100711
X141696Y83884
X141224Y84392
X140716Y83884
X140208Y84392
X139716Y83884
X139256Y84836
X138716Y83884
X138176Y84455
X137716Y83884
X135446Y116614
X135414Y107678
X135382Y94805
X137160Y84455
X135446Y117602
X135128Y106997
X135113Y95567
X137238Y95567
X141478Y97091
X142690Y83878
X135954Y84455
X137631Y120142
X141198Y120142
X139446Y89662
X135319Y83947
X134842Y84423
X143637Y83693
X140843Y93218
X140843Y92265
X153416Y84455
X147892Y83884
X148553Y120840
X152691Y120840
X147828Y119126
X146543Y86551
X146479Y85027
X149083Y88646
X152893Y88646
X153670Y118046
X155385Y122364
X145923Y121412
X154734Y84519
X150813Y86043
X150622Y116586
X151257Y114490
X152083Y111506
X152083Y110553
X148717Y106172
X149289Y102806
X149289Y101854
X148654Y96266
X149289Y94170
X154734Y86614
X152527Y104140
X152654Y95504
X152019Y98361
X148463Y110871
X152908Y106426
X148194Y92456
X153972Y95504
X153591Y100711
X152872Y83884
X152400Y84392
X151892Y83884
X151384Y84392
X150892Y83884
X150432Y84836
X149892Y83884
X149352Y84455
X148892Y83884
X146622Y116614
X146590Y107678
X146558Y94805
X148336Y84455
X146622Y117602
X146304Y106997
X146289Y95567
X148414Y95567
X152654Y97091
X153866Y83878
X147130Y84455
X148807Y120142
X152374Y120142
X150622Y89662
X146495Y83947
X146018Y84423
X154813Y83693
X152019Y93218
X152019Y92265
X164592Y84455
X159068Y83884
X159729Y120840
X163867Y120840
X159004Y119126
X157719Y86551
X157655Y85027
X160259Y88646
X164069Y88646
X164846Y118046
X166561Y122364
X157099Y121412
X165910Y84519
X161989Y86043
X161798Y116586
X162433Y114490
X163259Y111506
X163259Y110553
X159893Y106172
X160465Y102806
X160465Y101854
X159830Y96266
X160465Y94170
X165910Y86614
X163703Y104140
X163830Y95504
X163195Y98361
X159639Y110871
X164084Y106426
X159370Y92456
X165148Y95504
X164767Y100711
X164048Y83884
X163576Y84392
X163068Y83884
X162560Y84392
X162068Y83884
X161608Y84836
X161068Y83884
X160528Y84455
X160068Y83884
X157798Y116614
X157766Y107678
X157734Y94805
X159512Y84455
X157798Y117602
X157480Y106997
X157465Y95567
X159590Y95567
X163830Y97091
X165042Y83878
X158306Y84455
X159983Y120142
X163550Y120142
X161798Y89662
X157671Y83947
X157194Y84423
X165989Y83693
X163195Y93218
X163195Y92265
X175768Y84455
X170244Y83884
X170905Y120840
X175043Y120840
X170180Y119126
X168895Y86551
X168831Y85027
X171435Y88646
X175245Y88646
X176022Y118046
X177736Y122364
X168275Y121412
X177086Y84519
X173165Y86043
X172974Y116586
X173609Y114490
X174435Y111506
X174435Y110553
X171069Y106172
X171641Y102806
X171641Y101854
X171006Y96266
X171641Y94170
X177086Y86614
X174879Y104140
X175006Y95504
X174371Y98361
X170815Y110871
X175260Y106426
X170546Y92456
X176324Y95504
X175943Y100711
X175224Y83884
X174752Y84392
X174244Y83884
X173736Y84392
X173244Y83884
X172784Y84836
X172244Y83884
X171704Y84455
X171244Y83884
X168974Y116614
X168942Y107678
X168910Y94805
X170688Y84455
X168974Y117602
X168656Y106997
X168641Y95567
X170766Y95567
X175006Y97091
X176218Y83878
X169482Y84455
X171159Y120142
X174726Y120142
X172974Y89662
X168847Y83947
X168370Y84423
X177165Y83693
X174371Y93218
X174371Y92265
M30